<svg width="110" height="111" viewBox="0 0 110 111" fill="none" xmlns="http://www.w3.org/2000/svg">
<path fill-rule="evenodd" clip-rule="evenodd" d="M11.2822 106.628C11.2822 108.963 13.1776 110.859 15.513 110.859H104.359C107.349 110.859 110 108.207 110 105.218V16.3714C110 14.036 108.105 12.1406 105.769 12.1406C103.434 12.1406 101.539 14.036 101.539 16.3714V102.397H15.513C13.1776 102.397 11.2822 104.292 11.2822 106.628V106.628ZM5.64107 0.858398C2.1436 0.858398 0 3.78605 0 6.49947V91.1148C0 94.6179 2.93331 96.7559 5.64107 96.7559H90.2564C92.9528 96.7559 95.8975 94.6179 95.8975 91.1148V6.49947C95.8975 3.80303 93.7595 0.858398 90.2564 0.858398H5.64107V0.858398Z" fill="black"/>
</svg>
