<svg width="110" height="111" viewBox="0 0 110 111" fill="none" xmlns="http://www.w3.org/2000/svg">
<mask id="mask0_0_324" style="mask-type:luminance" maskUnits="userSpaceOnUse" x="0" y="0" width="110" height="111">
<path fill-rule="evenodd" clip-rule="evenodd" d="M110 0.858398V110.858H0V0.858398H110V0.858398Z" fill="white"/>
</mask>
<g mask="url(#mask0_0_324)">
<path fill-rule="evenodd" clip-rule="evenodd" d="M22.9167 78.7752C10.2575 78.7752 0 68.5131 0 55.8586C0 43.204 10.2575 32.9419 22.9167 32.9419C35.5712 32.9419 45.8333 43.204 45.8333 55.8586C45.8333 68.5131 35.5712 78.7752 22.9167 78.7752V78.7752ZM64.1666 14.6082C64.1666 16.0381 64.4462 17.3856 64.845 18.6781L45.5537 33.1477C47.7216 35.3065 49.5733 37.7723 51.0583 40.4765L70.2946 26.0482C72.4808 27.5011 75.0979 28.3582 77.9166 28.3582C85.5066 28.3582 91.6666 22.2027 91.6666 14.6082C91.6666 7.01357 85.5066 0.858154 77.9166 0.858154C70.322 0.858154 64.1666 7.01357 64.1666 14.6082V14.6082Z" fill="black"/>
<path fill-rule="evenodd" clip-rule="evenodd" d="M77.9167 110.859C85.5067 110.859 91.6667 104.703 91.6667 97.1086C91.6667 89.514 85.5067 83.3586 77.9167 83.3586C75.0979 83.3586 72.4809 84.2157 70.2992 85.6686L51.063 71.2402C49.5779 73.9444 47.7217 76.4102 45.5583 78.569L64.845 93.0386C64.4462 94.3311 64.1667 95.6786 64.1667 97.1086C64.1667 104.703 70.3221 110.859 77.9167 110.859V110.859Z" fill="black"/>
<path fill-rule="evenodd" clip-rule="evenodd" d="M96.25 42.3926C90.3787 42.3926 85.4012 46.0913 83.4304 51.2751H54.6333C54.8487 52.7784 54.9999 54.3001 54.9999 55.8584C54.9999 57.4167 54.8487 58.9384 54.6333 60.4417H83.2516C85.0621 65.9188 90.1633 69.8926 96.25 69.8926C103.84 69.8926 110 63.7372 110 56.1426C110 48.548 103.84 42.3926 96.25 42.3926V42.3926Z" fill="black"/>
</g>
</svg>
