<svg width="110" height="111" viewBox="0 0 110 111" fill="none" xmlns="http://www.w3.org/2000/svg">
<mask id="mask0_0_308" style="mask-type:luminance" maskUnits="userSpaceOnUse" x="0" y="0" width="110" height="111">
<path fill-rule="evenodd" clip-rule="evenodd" d="M110 0.858398V110.858H0V0.858398H110V0.858398Z" fill="white"/>
</mask>
<g mask="url(#mask0_0_308)">
<path fill-rule="evenodd" clip-rule="evenodd" d="M18.3332 103.964C6.91155 103.964 2.98817 94.9075 4.58321 85.6309H105.416C107.112 94.7104 102.923 103.918 91.6665 103.964C70.5328 104.051 39.4669 103.964 18.3332 103.964V103.964Z" fill="black"/>
<path fill-rule="evenodd" clip-rule="evenodd" d="M0 74.1724C0 70.5836 2.75462 67.6365 6.25625 67.3249C6.38462 67.3065 15.9546 67.2974 15.9546 67.2974C26.8171 67.3753 29.0262 76.4915 34.375 76.464C39.7238 76.4365 42.5379 67.4074 52.5479 67.2974H103.285C107.007 67.3845 110 70.4324 110 74.1724C110 77.9124 107.007 80.9603 103.285 81.0474C103.253 81.0474 6.38462 81.0382 6.25625 81.0199C2.75462 80.7082 0 77.7611 0 74.1724V74.1724Z" fill="black"/>
<path fill-rule="evenodd" clip-rule="evenodd" d="M110 55.8391C110 59.5791 107.007 62.627 103.285 62.7141C103.253 62.7141 6.38462 62.7049 6.25625 62.6866C2.75462 62.3749 0 59.4279 0 55.8391C0 52.2504 2.75462 49.3033 6.25625 48.9916C6.38462 48.9733 57.2046 48.9641 57.2046 48.9641C68.0671 49.042 70.2762 58.1583 75.625 58.1308C80.9738 58.1033 83.7879 49.0741 93.7979 48.9641H103.285C107.007 49.0512 110 52.0991 110 55.8391V55.8391Z" fill="black"/>
<path fill-rule="evenodd" clip-rule="evenodd" d="M54.9997 7.71362C85.3551 7.71362 105.416 26.0974 105.416 44.3803H4.58301C4.58301 26.0974 24.6442 7.71362 54.9997 7.71362V7.71362ZM52.7084 30.6307C51.4434 30.6307 50.4167 29.604 50.4167 28.339C50.4167 27.074 51.4434 26.0474 52.7084 26.0474C53.9734 26.0474 55.0001 27.074 55.0001 28.339C55.0001 29.604 53.9734 30.6307 52.7084 30.6307V30.6307Z" fill="black"/>
<path fill-rule="evenodd" clip-rule="evenodd" d="M71.0417 30.6307C69.7767 30.6307 68.75 29.604 68.75 28.339C68.75 27.074 69.7767 26.0474 71.0417 26.0474C72.3067 26.0474 73.3333 27.074 73.3333 28.339C73.3333 29.604 72.3067 30.6307 71.0417 30.6307V30.6307Z" fill="black"/>
<path fill-rule="evenodd" clip-rule="evenodd" d="M89.3749 30.6307C88.1099 30.6307 87.0833 29.604 87.0833 28.339C87.0833 27.074 88.1099 26.0474 89.3749 26.0474C90.6399 26.0474 91.6666 27.074 91.6666 28.339C91.6666 29.604 90.6399 30.6307 89.3749 30.6307V30.6307Z" fill="black"/>
<path fill-rule="evenodd" clip-rule="evenodd" d="M34.3749 30.6307C33.1099 30.6307 32.0833 29.604 32.0833 28.339C32.0833 27.074 33.1099 26.0474 34.3749 26.0474C35.6399 26.0474 36.6666 27.074 36.6666 28.339C36.6666 29.604 35.6399 30.6307 34.3749 30.6307V30.6307Z" fill="black"/>
<path fill-rule="evenodd" clip-rule="evenodd" d="M25.2087 26.0474C23.9437 26.0474 22.917 25.0208 22.917 23.7558C22.917 22.4908 23.9437 21.4641 25.2087 21.4641C26.4737 21.4641 27.5003 22.4908 27.5003 23.7558C27.5003 25.0208 26.4737 26.0474 25.2087 26.0474V26.0474Z" fill="black"/>
<path fill-rule="evenodd" clip-rule="evenodd" d="M38.9587 21.4639C37.6937 21.4639 36.667 20.4373 36.667 19.1723C36.667 17.9073 37.6937 16.8806 38.9587 16.8806C40.2237 16.8806 41.2503 17.9073 41.2503 19.1723C41.2503 20.4373 40.2237 21.4639 38.9587 21.4639V21.4639Z" fill="black"/>
<path fill-rule="evenodd" clip-rule="evenodd" d="M66.4587 21.4639C65.1937 21.4639 64.167 20.4373 64.167 19.1723C64.167 17.9073 65.1937 16.8806 66.4587 16.8806C67.7237 16.8806 68.7503 17.9073 68.7503 19.1723C68.7503 20.4373 67.7237 21.4639 66.4587 21.4639V21.4639Z" fill="black"/>
<path fill-rule="evenodd" clip-rule="evenodd" d="M80.2087 21.4639C78.9437 21.4639 77.917 20.4373 77.917 19.1723C77.917 17.9073 78.9437 16.8806 80.2087 16.8806C81.4737 16.8806 82.5003 17.9073 82.5003 19.1723C82.5003 20.4373 81.4737 21.4639 80.2087 21.4639Z" fill="black"/>
<path fill-rule="evenodd" clip-rule="evenodd" d="M52.7087 16.8807C51.4437 16.8807 50.417 15.854 50.417 14.589C50.417 13.324 51.4437 12.2974 52.7087 12.2974C53.9737 12.2974 55.0003 13.324 55.0003 14.589C55.0003 15.854 53.9737 16.8807 52.7087 16.8807V16.8807Z" fill="black"/>
</g>
</svg>
